<mxfile host="app.diagrams.net" agent="Mozilla/5.0 (Windows NT 10.0; Win64; x64) AppleWebKit/537.36 (KHTML, like Gecko) Chrome/122.0.0.0 Safari/537.36" version="24.7.17">
  <diagram name="第 1 页" id="8O7xxAEqulu4geyYi50V">
    <mxGraphModel dx="896" dy="461" grid="1" gridSize="10" guides="1" tooltips="1" connect="1" arrows="1" fold="1" page="1" pageScale="1" pageWidth="827" pageHeight="1169" math="0" shadow="0">
      <root>
        <mxCell id="0" />
        <mxCell id="1" parent="0" />
        <mxCell id="2k8hdnFPRNbZHfNdyhW9-2" value="" style="rounded=0;whiteSpace=wrap;html=1;" vertex="1" parent="1">
          <mxGeometry x="30" y="200" width="770" height="400" as="geometry" />
        </mxCell>
        <mxCell id="2k8hdnFPRNbZHfNdyhW9-4" value="&lt;div style=&quot;font-size: 16px;&quot;&gt;&lt;span style=&quot;background-color: initial; font-size: 16px;&quot;&gt;收集阶段&lt;/span&gt;&lt;/div&gt;" style="rounded=1;whiteSpace=wrap;html=1;absoluteArcSize=1;arcSize=14;strokeWidth=2;align=center;verticalAlign=top;fontStyle=1;fontSize=16;" vertex="1" parent="1">
          <mxGeometry x="69" y="230" width="180" height="340" as="geometry" />
        </mxCell>
        <mxCell id="2k8hdnFPRNbZHfNdyhW9-6" value="执行完毕阶段&lt;br&gt;&lt;br&gt;&lt;font style=&quot;font-size: 12px;&quot;&gt;生成PNG，并转为gif动图&lt;/font&gt;" style="rounded=1;whiteSpace=wrap;html=1;absoluteArcSize=1;arcSize=14;strokeWidth=2;align=center;verticalAlign=top;fontStyle=1;fontSize=16;movable=0;resizable=0;rotatable=0;deletable=0;editable=0;locked=1;connectable=0;" vertex="1" parent="1">
          <mxGeometry x="580" y="230" width="180" height="340" as="geometry" />
        </mxCell>
        <mxCell id="2k8hdnFPRNbZHfNdyhW9-7" value="" style="verticalLabelPosition=bottom;verticalAlign=top;html=1;strokeWidth=2;shape=mxgraph.arrows2.arrow;dy=0.6;dx=40;notch=0;" vertex="1" parent="1">
          <mxGeometry x="260" y="390" width="80" height="25" as="geometry" />
        </mxCell>
        <mxCell id="2k8hdnFPRNbZHfNdyhW9-8" value="" style="verticalLabelPosition=bottom;verticalAlign=top;html=1;strokeWidth=2;shape=mxgraph.arrows2.arrow;dy=0.6;dx=40;notch=0;" vertex="1" parent="1">
          <mxGeometry x="489" y="389" width="80" height="25" as="geometry" />
        </mxCell>
        <mxCell id="2k8hdnFPRNbZHfNdyhW9-9" value="执行阶段" style="rounded=1;whiteSpace=wrap;html=1;absoluteArcSize=1;arcSize=14;strokeWidth=2;verticalAlign=top;fontStyle=1;fontSize=16;" vertex="1" parent="1">
          <mxGeometry x="344" y="230" width="140" height="340" as="geometry" />
        </mxCell>
        <mxCell id="2k8hdnFPRNbZHfNdyhW9-10" value="&lt;font style=&quot;font-size: 8px;&quot;&gt;读取excel&lt;/font&gt;" style="ellipse;whiteSpace=wrap;html=1;" vertex="1" parent="1">
          <mxGeometry x="120" y="284" width="66" height="20" as="geometry" />
        </mxCell>
        <mxCell id="2k8hdnFPRNbZHfNdyhW9-21" style="edgeStyle=orthogonalEdgeStyle;rounded=0;orthogonalLoop=1;jettySize=auto;html=1;exitX=0.5;exitY=1;exitDx=0;exitDy=0;entryX=0.5;entryY=0;entryDx=0;entryDy=0;" edge="1" parent="1" source="2k8hdnFPRNbZHfNdyhW9-12">
          <mxGeometry relative="1" as="geometry">
            <mxPoint x="151" y="359" as="targetPoint" />
          </mxGeometry>
        </mxCell>
        <mxCell id="2k8hdnFPRNbZHfNdyhW9-12" value="&lt;font style=&quot;font-size: 8px;&quot;&gt;解析excel内容，构造数据对象&lt;/font&gt;" style="shape=parallelogram;perimeter=parallelogramPerimeter;whiteSpace=wrap;html=1;fixedSize=1;" vertex="1" parent="1">
          <mxGeometry x="83" y="320" width="130" height="20" as="geometry" />
        </mxCell>
        <mxCell id="2k8hdnFPRNbZHfNdyhW9-18" style="edgeStyle=orthogonalEdgeStyle;rounded=0;orthogonalLoop=1;jettySize=auto;html=1;exitX=0.5;exitY=1;exitDx=0;exitDy=0;entryX=0.536;entryY=0.014;entryDx=0;entryDy=0;entryPerimeter=0;" edge="1" parent="1" source="2k8hdnFPRNbZHfNdyhW9-10" target="2k8hdnFPRNbZHfNdyhW9-12">
          <mxGeometry relative="1" as="geometry" />
        </mxCell>
        <mxCell id="2k8hdnFPRNbZHfNdyhW9-22" value="&lt;span style=&quot;font-size: 8px;&quot;&gt;按jinja2模板，&lt;font color=&quot;#ff0000&quot;&gt;自动生成Test类代码&lt;/font&gt;块&lt;/span&gt;" style="rounded=0;whiteSpace=wrap;html=1;align=left;" vertex="1" parent="1">
          <mxGeometry x="80" y="369" width="50" height="60" as="geometry" />
        </mxCell>
        <mxCell id="2k8hdnFPRNbZHfNdyhW9-23" value="" style="strokeWidth=2;html=1;shape=mxgraph.flowchart.annotation_2;align=left;labelPosition=right;pointerEvents=1;direction=south;" vertex="1" parent="1">
          <mxGeometry x="101" y="347" width="100" height="20" as="geometry" />
        </mxCell>
        <mxCell id="2k8hdnFPRNbZHfNdyhW9-24" value="&lt;span style=&quot;font-size: 8px;&quot;&gt;&lt;font color=&quot;#ff0000&quot;&gt;自动创建test.py文件&lt;/font&gt;，并写入Test类代码&lt;/span&gt;" style="rounded=0;whiteSpace=wrap;html=1;align=left;" vertex="1" parent="1">
          <mxGeometry x="166" y="368" width="50" height="60" as="geometry" />
        </mxCell>
        <mxCell id="2k8hdnFPRNbZHfNdyhW9-26" style="edgeStyle=orthogonalEdgeStyle;rounded=0;orthogonalLoop=1;jettySize=auto;html=1;exitX=1;exitY=0.5;exitDx=0;exitDy=0;entryX=2.603;entryY=0.397;entryDx=0;entryDy=0;entryPerimeter=0;" edge="1" parent="1">
          <mxGeometry relative="1" as="geometry">
            <mxPoint x="133" y="399" as="sourcePoint" />
            <mxPoint x="164.29999999999995" y="399.05999999999995" as="targetPoint" />
          </mxGeometry>
        </mxCell>
        <mxCell id="2k8hdnFPRNbZHfNdyhW9-28" value="" style="strokeWidth=2;html=1;shape=mxgraph.flowchart.annotation_2;align=left;labelPosition=right;pointerEvents=1;direction=north;" vertex="1" parent="1">
          <mxGeometry x="98" y="428" width="100" height="22" as="geometry" />
        </mxCell>
        <mxCell id="2k8hdnFPRNbZHfNdyhW9-32" style="edgeStyle=orthogonalEdgeStyle;rounded=0;orthogonalLoop=1;jettySize=auto;html=1;exitX=0.5;exitY=1;exitDx=0;exitDy=0;entryX=0.5;entryY=0;entryDx=0;entryDy=0;" edge="1" parent="1" source="2k8hdnFPRNbZHfNdyhW9-29" target="2k8hdnFPRNbZHfNdyhW9-31">
          <mxGeometry relative="1" as="geometry" />
        </mxCell>
        <mxCell id="2k8hdnFPRNbZHfNdyhW9-29" value="完成excel转test.py" style="rounded=0;whiteSpace=wrap;html=1;fontSize=8;" vertex="1" parent="1">
          <mxGeometry x="87" y="450" width="120" height="20" as="geometry" />
        </mxCell>
        <mxCell id="2k8hdnFPRNbZHfNdyhW9-31" value="&lt;font style=&quot;font-size: 8px;&quot;&gt;pytest完成item收集&lt;/font&gt;" style="ellipse;whiteSpace=wrap;html=1;" vertex="1" parent="1">
          <mxGeometry x="102" y="487" width="90" height="20" as="geometry" />
        </mxCell>
        <mxCell id="2k8hdnFPRNbZHfNdyhW9-33" value="&lt;font style=&quot;font-size: 10px;&quot;&gt;这里主要介绍生成的test.py、Test类、test方法，对应关系：&lt;br&gt;&lt;/font&gt;&lt;br&gt;&amp;nbsp;" style="rounded=0;whiteSpace=wrap;html=1;verticalAlign=top;align=left;" vertex="1" parent="1">
          <mxGeometry x="355" y="280" width="120" height="270" as="geometry" />
        </mxCell>
        <mxCell id="2k8hdnFPRNbZHfNdyhW9-37" style="edgeStyle=orthogonalEdgeStyle;rounded=0;orthogonalLoop=1;jettySize=auto;html=1;exitX=0.5;exitY=1;exitDx=0;exitDy=0;" edge="1" parent="1" source="2k8hdnFPRNbZHfNdyhW9-34" target="2k8hdnFPRNbZHfNdyhW9-36">
          <mxGeometry relative="1" as="geometry" />
        </mxCell>
        <mxCell id="2k8hdnFPRNbZHfNdyhW9-38" value="1：1" style="edgeLabel;html=1;align=center;verticalAlign=middle;resizable=0;points=[];" vertex="1" connectable="0" parent="2k8hdnFPRNbZHfNdyhW9-37">
          <mxGeometry relative="1" as="geometry">
            <mxPoint as="offset" />
          </mxGeometry>
        </mxCell>
        <mxCell id="2k8hdnFPRNbZHfNdyhW9-34" value="&lt;font style=&quot;font-size: 9px;&quot;&gt;test_xx.py&lt;/font&gt;" style="ellipse;whiteSpace=wrap;html=1;" vertex="1" parent="1">
          <mxGeometry x="371" y="356" width="85" height="16" as="geometry" />
        </mxCell>
        <mxCell id="2k8hdnFPRNbZHfNdyhW9-35" value="&lt;font color=&quot;#ff3333&quot;&gt;1 : n&lt;/font&gt;" style="strokeWidth=2;html=1;shape=mxgraph.flowchart.annotation_2;align=center;labelPosition=center;pointerEvents=1;direction=south;verticalLabelPosition=middle;verticalAlign=bottom;fontColor=#4D4D4D;fontStyle=0" vertex="1" parent="1">
          <mxGeometry x="369" y="415" width="83.5" height="37" as="geometry" />
        </mxCell>
        <mxCell id="2k8hdnFPRNbZHfNdyhW9-36" value="&lt;font style=&quot;font-size: 9px;&quot;&gt;Test类&lt;/font&gt;" style="ellipse;whiteSpace=wrap;html=1;" vertex="1" parent="1">
          <mxGeometry x="371" y="399" width="85" height="16" as="geometry" />
        </mxCell>
        <mxCell id="2k8hdnFPRNbZHfNdyhW9-40" value="&lt;font style=&quot;font-size: 8px;&quot;&gt;test_1方法&lt;/font&gt;" style="ellipse;whiteSpace=wrap;html=1;" vertex="1" parent="1">
          <mxGeometry x="357" y="452" width="43" height="27" as="geometry" />
        </mxCell>
        <mxCell id="2k8hdnFPRNbZHfNdyhW9-42" value="&lt;font style=&quot;font-size: 8px;&quot;&gt;test_2方法&lt;/font&gt;" style="ellipse;whiteSpace=wrap;html=1;fontSize=8;" vertex="1" parent="1">
          <mxGeometry x="430" y="452" width="43" height="25" as="geometry" />
        </mxCell>
        <mxCell id="2k8hdnFPRNbZHfNdyhW9-58" value="执行每个test步骤" style="rounded=0;whiteSpace=wrap;html=1;verticalAlign=top;align=center;fontStyle=1;fontSize=10;textShadow=1;movable=1;resizable=1;rotatable=1;deletable=1;editable=1;locked=0;connectable=1;" vertex="1" parent="1">
          <mxGeometry x="597" y="310" width="143" height="100" as="geometry" />
        </mxCell>
        <mxCell id="2k8hdnFPRNbZHfNdyhW9-50" value="&lt;font style=&quot;font-size: 8px;&quot;&gt;调用并执行关键字&lt;/font&gt;" style="ellipse;whiteSpace=wrap;html=1;fontSize=8;" vertex="1" parent="1">
          <mxGeometry x="632" y="340" width="67" height="23" as="geometry" />
        </mxCell>
        <mxCell id="2k8hdnFPRNbZHfNdyhW9-54" value="&lt;font color=&quot;#ff3333&quot; style=&quot;font-size: 6px;&quot;&gt;执行PNG截图&lt;/font&gt;" style="ellipse;whiteSpace=wrap;html=1;fontSize=6;" vertex="1" parent="1">
          <mxGeometry x="603" y="382" width="46" height="19" as="geometry" />
        </mxCell>
        <mxCell id="2k8hdnFPRNbZHfNdyhW9-56" value="" style="strokeWidth=2;html=1;shape=mxgraph.flowchart.annotation_2;align=center;labelPosition=center;pointerEvents=1;direction=south;verticalLabelPosition=middle;verticalAlign=bottom;fontColor=#4D4D4D;fontStyle=0" vertex="1" parent="1">
          <mxGeometry x="625" y="363" width="83.5" height="17" as="geometry" />
        </mxCell>
        <mxCell id="2k8hdnFPRNbZHfNdyhW9-59" value="&lt;font color=&quot;#ff0000&quot; style=&quot;font-size: 6px;&quot;&gt;执行PNG截图&lt;/font&gt;" style="ellipse;whiteSpace=wrap;html=1;fontSize=6;" vertex="1" parent="1">
          <mxGeometry x="685" y="381" width="46" height="19" as="geometry" />
        </mxCell>
        <mxCell id="2k8hdnFPRNbZHfNdyhW9-60" value="按步骤顺序，重复以上操作" style="rounded=0;whiteSpace=wrap;html=1;fontSize=9;" vertex="1" parent="1">
          <mxGeometry x="597" y="436" width="143" height="20" as="geometry" />
        </mxCell>
        <mxCell id="2k8hdnFPRNbZHfNdyhW9-63" value="" style="endArrow=classic;html=1;rounded=0;exitX=0.5;exitY=1;exitDx=0;exitDy=0;entryX=0.5;entryY=0;entryDx=0;entryDy=0;" edge="1" parent="1" source="2k8hdnFPRNbZHfNdyhW9-58" target="2k8hdnFPRNbZHfNdyhW9-60">
          <mxGeometry width="50" height="50" relative="1" as="geometry">
            <mxPoint x="640.5" y="485" as="sourcePoint" />
            <mxPoint x="690.5" y="435" as="targetPoint" />
          </mxGeometry>
        </mxCell>
        <mxCell id="2k8hdnFPRNbZHfNdyhW9-64" value="一个Test类的所有步骤执行完后，&lt;br style=&quot;font-size: 9px;&quot;&gt;收集所有PNG图片，排序后&lt;font color=&quot;#ff3333&quot;&gt;生成gif动图&lt;/font&gt;" style="rounded=0;whiteSpace=wrap;html=1;fontSize=9;align=left;" vertex="1" parent="1">
          <mxGeometry x="597" y="474" width="143" height="36" as="geometry" />
        </mxCell>
      </root>
    </mxGraphModel>
  </diagram>
</mxfile>
